<mxfile host="app.diagrams.net" modified="2024-03-16T22:48:51.927Z" agent="Mozilla/5.0 (Windows NT 10.0; Win64; x64) AppleWebKit/537.36 (KHTML, like Gecko) Chrome/120.0.0.0 YaBrowser/24.1.0.0 Safari/537.36" etag="kVaeOPDThmMlkaJlY-0r" version="24.0.7" type="device">
  <diagram name="Страница — 1" id="x8fZmJZms0_3EuBJ5WU5">
    <mxGraphModel dx="989" dy="540" grid="1" gridSize="10" guides="1" tooltips="1" connect="1" arrows="1" fold="1" page="1" pageScale="1" pageWidth="827" pageHeight="1169" math="0" shadow="0">
      <root>
        <mxCell id="0" />
        <mxCell id="1" parent="0" />
        <mxCell id="TopxXAzON157hShRdr8D-3" style="edgeStyle=orthogonalEdgeStyle;rounded=0;orthogonalLoop=1;jettySize=auto;html=1;exitX=0.5;exitY=1;exitDx=0;exitDy=0;entryX=0.5;entryY=0;entryDx=0;entryDy=0;" edge="1" parent="1" source="TopxXAzON157hShRdr8D-1" target="TopxXAzON157hShRdr8D-2">
          <mxGeometry relative="1" as="geometry" />
        </mxCell>
        <mxCell id="TopxXAzON157hShRdr8D-1" value="Start" style="ellipse;whiteSpace=wrap;html=1;" vertex="1" parent="1">
          <mxGeometry x="350" y="10" width="120" height="50" as="geometry" />
        </mxCell>
        <mxCell id="TopxXAzON157hShRdr8D-5" style="edgeStyle=orthogonalEdgeStyle;rounded=0;orthogonalLoop=1;jettySize=auto;html=1;exitX=0.5;exitY=1;exitDx=0;exitDy=0;entryX=0.5;entryY=0;entryDx=0;entryDy=0;" edge="1" parent="1" source="TopxXAzON157hShRdr8D-2" target="TopxXAzON157hShRdr8D-4">
          <mxGeometry relative="1" as="geometry" />
        </mxCell>
        <mxCell id="TopxXAzON157hShRdr8D-2" value="a, b, e, func" style="shape=parallelogram;perimeter=parallelogramPerimeter;whiteSpace=wrap;html=1;fixedSize=1;" vertex="1" parent="1">
          <mxGeometry x="350" y="90" width="120" height="60" as="geometry" />
        </mxCell>
        <mxCell id="TopxXAzON157hShRdr8D-9" style="edgeStyle=orthogonalEdgeStyle;rounded=0;orthogonalLoop=1;jettySize=auto;html=1;exitX=0.5;exitY=1;exitDx=0;exitDy=0;entryX=0.5;entryY=0;entryDx=0;entryDy=0;" edge="1" parent="1" source="TopxXAzON157hShRdr8D-4" target="TopxXAzON157hShRdr8D-7">
          <mxGeometry relative="1" as="geometry" />
        </mxCell>
        <mxCell id="TopxXAzON157hShRdr8D-4" value="num = 4" style="rounded=0;whiteSpace=wrap;html=1;" vertex="1" parent="1">
          <mxGeometry x="350" y="180" width="120" height="30" as="geometry" />
        </mxCell>
        <mxCell id="TopxXAzON157hShRdr8D-10" style="edgeStyle=orthogonalEdgeStyle;rounded=0;orthogonalLoop=1;jettySize=auto;html=1;exitX=0.5;exitY=1;exitDx=0;exitDy=0;entryX=0.5;entryY=0;entryDx=0;entryDy=0;" edge="1" parent="1" source="TopxXAzON157hShRdr8D-7" target="TopxXAzON157hShRdr8D-8">
          <mxGeometry relative="1" as="geometry" />
        </mxCell>
        <mxCell id="TopxXAzON157hShRdr8D-44" style="edgeStyle=orthogonalEdgeStyle;rounded=0;orthogonalLoop=1;jettySize=auto;html=1;exitX=1;exitY=0.5;exitDx=0;exitDy=0;entryX=0.5;entryY=0;entryDx=0;entryDy=0;" edge="1" parent="1" source="TopxXAzON157hShRdr8D-7" target="TopxXAzON157hShRdr8D-33">
          <mxGeometry relative="1" as="geometry">
            <Array as="points">
              <mxPoint x="540" y="270" />
              <mxPoint x="540" y="920" />
              <mxPoint x="410" y="920" />
            </Array>
          </mxGeometry>
        </mxCell>
        <mxCell id="TopxXAzON157hShRdr8D-7" value="num &amp;lt;=100000" style="rhombus;whiteSpace=wrap;html=1;" vertex="1" parent="1">
          <mxGeometry x="360" y="230" width="100" height="80" as="geometry" />
        </mxCell>
        <mxCell id="TopxXAzON157hShRdr8D-13" style="edgeStyle=orthogonalEdgeStyle;rounded=0;orthogonalLoop=1;jettySize=auto;html=1;exitX=0.5;exitY=1;exitDx=0;exitDy=0;entryX=0.5;entryY=0;entryDx=0;entryDy=0;" edge="1" parent="1" source="TopxXAzON157hShRdr8D-8">
          <mxGeometry relative="1" as="geometry">
            <mxPoint x="410" y="370" as="targetPoint" />
          </mxGeometry>
        </mxCell>
        <mxCell id="TopxXAzON157hShRdr8D-17" style="edgeStyle=orthogonalEdgeStyle;rounded=0;orthogonalLoop=1;jettySize=auto;html=1;exitX=0.5;exitY=1;exitDx=0;exitDy=0;entryX=0.5;entryY=0;entryDx=0;entryDy=0;" edge="1" parent="1" source="TopxXAzON157hShRdr8D-8" target="TopxXAzON157hShRdr8D-16">
          <mxGeometry relative="1" as="geometry" />
        </mxCell>
        <mxCell id="TopxXAzON157hShRdr8D-8" value="h = (b-a)/n&lt;div&gt;coefficient = 3&lt;br&gt;total = 0&lt;/div&gt;" style="rounded=0;whiteSpace=wrap;html=1;" vertex="1" parent="1">
          <mxGeometry x="350" y="330" width="120" height="50" as="geometry" />
        </mxCell>
        <mxCell id="TopxXAzON157hShRdr8D-11" value="Да" style="text;html=1;align=center;verticalAlign=middle;whiteSpace=wrap;rounded=0;" vertex="1" parent="1">
          <mxGeometry x="400" y="300" width="60" height="30" as="geometry" />
        </mxCell>
        <mxCell id="TopxXAzON157hShRdr8D-19" style="edgeStyle=orthogonalEdgeStyle;rounded=0;orthogonalLoop=1;jettySize=auto;html=1;exitX=0.5;exitY=1;exitDx=0;exitDy=0;entryX=0.5;entryY=0;entryDx=0;entryDy=0;" edge="1" parent="1" source="TopxXAzON157hShRdr8D-16" target="TopxXAzON157hShRdr8D-18">
          <mxGeometry relative="1" as="geometry" />
        </mxCell>
        <mxCell id="TopxXAzON157hShRdr8D-23" style="edgeStyle=orthogonalEdgeStyle;rounded=0;orthogonalLoop=1;jettySize=auto;html=1;exitX=1;exitY=0.5;exitDx=0;exitDy=0;entryX=0.5;entryY=0;entryDx=0;entryDy=0;" edge="1" parent="1" source="TopxXAzON157hShRdr8D-16" target="TopxXAzON157hShRdr8D-22">
          <mxGeometry relative="1" as="geometry">
            <Array as="points">
              <mxPoint x="490" y="415" />
              <mxPoint x="490" y="500" />
              <mxPoint x="410" y="500" />
            </Array>
          </mxGeometry>
        </mxCell>
        <mxCell id="TopxXAzON157hShRdr8D-16" value="i: 0, n" style="shape=hexagon;perimeter=hexagonPerimeter2;whiteSpace=wrap;html=1;fixedSize=1;" vertex="1" parent="1">
          <mxGeometry x="350" y="400" width="120" height="30" as="geometry" />
        </mxCell>
        <mxCell id="TopxXAzON157hShRdr8D-20" style="edgeStyle=orthogonalEdgeStyle;rounded=0;orthogonalLoop=1;jettySize=auto;html=1;exitX=0;exitY=0.5;exitDx=0;exitDy=0;entryX=0;entryY=0.5;entryDx=0;entryDy=0;" edge="1" parent="1" source="TopxXAzON157hShRdr8D-18" target="TopxXAzON157hShRdr8D-16">
          <mxGeometry relative="1" as="geometry" />
        </mxCell>
        <mxCell id="TopxXAzON157hShRdr8D-18" value="total+=func(a+i*h)" style="rounded=0;whiteSpace=wrap;html=1;" vertex="1" parent="1">
          <mxGeometry x="350" y="460" width="120" height="30" as="geometry" />
        </mxCell>
        <mxCell id="TopxXAzON157hShRdr8D-28" style="edgeStyle=orthogonalEdgeStyle;rounded=0;orthogonalLoop=1;jettySize=auto;html=1;exitX=0.5;exitY=1;exitDx=0;exitDy=0;entryX=0.5;entryY=0;entryDx=0;entryDy=0;" edge="1" parent="1" source="TopxXAzON157hShRdr8D-22" target="TopxXAzON157hShRdr8D-24">
          <mxGeometry relative="1" as="geometry" />
        </mxCell>
        <mxCell id="TopxXAzON157hShRdr8D-22" value="integral_value = total*h" style="rounded=0;whiteSpace=wrap;html=1;" vertex="1" parent="1">
          <mxGeometry x="330" y="510" width="160" height="30" as="geometry" />
        </mxCell>
        <mxCell id="TopxXAzON157hShRdr8D-29" style="edgeStyle=orthogonalEdgeStyle;rounded=0;orthogonalLoop=1;jettySize=auto;html=1;exitX=0.5;exitY=1;exitDx=0;exitDy=0;entryX=0.5;entryY=0;entryDx=0;entryDy=0;" edge="1" parent="1" source="TopxXAzON157hShRdr8D-24" target="TopxXAzON157hShRdr8D-25">
          <mxGeometry relative="1" as="geometry" />
        </mxCell>
        <mxCell id="TopxXAzON157hShRdr8D-24" value="&lt;div&gt;h /=2&lt;br&gt;num *=2&lt;/div&gt;&lt;div&gt;total = 0&lt;/div&gt;" style="rounded=0;whiteSpace=wrap;html=1;" vertex="1" parent="1">
          <mxGeometry x="350" y="560" width="120" height="50" as="geometry" />
        </mxCell>
        <mxCell id="TopxXAzON157hShRdr8D-31" style="edgeStyle=orthogonalEdgeStyle;rounded=0;orthogonalLoop=1;jettySize=auto;html=1;exitX=1;exitY=0.5;exitDx=0;exitDy=0;entryX=0.5;entryY=0;entryDx=0;entryDy=0;" edge="1" parent="1" source="TopxXAzON157hShRdr8D-25" target="TopxXAzON157hShRdr8D-30">
          <mxGeometry relative="1" as="geometry">
            <Array as="points">
              <mxPoint x="490" y="645" />
              <mxPoint x="490" y="710" />
              <mxPoint x="410" y="710" />
            </Array>
          </mxGeometry>
        </mxCell>
        <mxCell id="TopxXAzON157hShRdr8D-25" value="i: 0, n" style="shape=hexagon;perimeter=hexagonPerimeter2;whiteSpace=wrap;html=1;fixedSize=1;" vertex="1" parent="1">
          <mxGeometry x="350" y="630" width="120" height="30" as="geometry" />
        </mxCell>
        <mxCell id="TopxXAzON157hShRdr8D-26" style="edgeStyle=orthogonalEdgeStyle;rounded=0;orthogonalLoop=1;jettySize=auto;html=1;exitX=0;exitY=0.5;exitDx=0;exitDy=0;entryX=0;entryY=0.5;entryDx=0;entryDy=0;" edge="1" parent="1" source="TopxXAzON157hShRdr8D-27" target="TopxXAzON157hShRdr8D-25">
          <mxGeometry relative="1" as="geometry" />
        </mxCell>
        <mxCell id="TopxXAzON157hShRdr8D-27" value="total+=func(a+i*h)" style="rounded=0;whiteSpace=wrap;html=1;" vertex="1" parent="1">
          <mxGeometry x="350" y="670" width="120" height="30" as="geometry" />
        </mxCell>
        <mxCell id="TopxXAzON157hShRdr8D-38" style="edgeStyle=orthogonalEdgeStyle;rounded=0;orthogonalLoop=1;jettySize=auto;html=1;exitX=0.5;exitY=1;exitDx=0;exitDy=0;entryX=0.5;entryY=0;entryDx=0;entryDy=0;" edge="1" parent="1" source="TopxXAzON157hShRdr8D-30" target="TopxXAzON157hShRdr8D-32">
          <mxGeometry relative="1" as="geometry" />
        </mxCell>
        <mxCell id="TopxXAzON157hShRdr8D-30" value="&lt;div&gt;integral_value1 = total*h&lt;br&gt;&lt;/div&gt;h *=2&lt;br&gt;num /= 2&lt;br&gt;error = |integral_value-integralvalue1|/coefficient" style="rounded=0;whiteSpace=wrap;html=1;" vertex="1" parent="1">
          <mxGeometry x="340" y="720" width="140" height="100" as="geometry" />
        </mxCell>
        <mxCell id="TopxXAzON157hShRdr8D-34" style="edgeStyle=orthogonalEdgeStyle;rounded=0;orthogonalLoop=1;jettySize=auto;html=1;exitX=0.5;exitY=1;exitDx=0;exitDy=0;entryX=0.5;entryY=0;entryDx=0;entryDy=0;" edge="1" parent="1" source="TopxXAzON157hShRdr8D-32" target="TopxXAzON157hShRdr8D-33">
          <mxGeometry relative="1" as="geometry" />
        </mxCell>
        <mxCell id="TopxXAzON157hShRdr8D-40" style="edgeStyle=orthogonalEdgeStyle;rounded=0;orthogonalLoop=1;jettySize=auto;html=1;exitX=0;exitY=0.5;exitDx=0;exitDy=0;entryX=1;entryY=0.5;entryDx=0;entryDy=0;" edge="1" parent="1" source="TopxXAzON157hShRdr8D-32" target="TopxXAzON157hShRdr8D-39">
          <mxGeometry relative="1" as="geometry" />
        </mxCell>
        <mxCell id="TopxXAzON157hShRdr8D-32" value="error&amp;lt;e" style="rhombus;whiteSpace=wrap;html=1;" vertex="1" parent="1">
          <mxGeometry x="370" y="840" width="80" height="80" as="geometry" />
        </mxCell>
        <mxCell id="TopxXAzON157hShRdr8D-33" value="integral_value, num, error" style="shape=parallelogram;perimeter=parallelogramPerimeter;whiteSpace=wrap;html=1;fixedSize=1;" vertex="1" parent="1">
          <mxGeometry x="310" y="960" width="200" height="60" as="geometry" />
        </mxCell>
        <mxCell id="TopxXAzON157hShRdr8D-35" value="Да" style="text;html=1;align=center;verticalAlign=middle;whiteSpace=wrap;rounded=0;" vertex="1" parent="1">
          <mxGeometry x="400" y="920" width="60" height="30" as="geometry" />
        </mxCell>
        <mxCell id="TopxXAzON157hShRdr8D-37" value="Нет" style="text;html=1;align=center;verticalAlign=middle;whiteSpace=wrap;rounded=0;" vertex="1" parent="1">
          <mxGeometry x="320" y="850" width="60" height="30" as="geometry" />
        </mxCell>
        <mxCell id="TopxXAzON157hShRdr8D-43" style="edgeStyle=orthogonalEdgeStyle;rounded=0;orthogonalLoop=1;jettySize=auto;html=1;exitX=0.5;exitY=0;exitDx=0;exitDy=0;entryX=0;entryY=0.5;entryDx=0;entryDy=0;" edge="1" parent="1" source="TopxXAzON157hShRdr8D-39" target="TopxXAzON157hShRdr8D-7">
          <mxGeometry relative="1" as="geometry" />
        </mxCell>
        <mxCell id="TopxXAzON157hShRdr8D-39" value="num*=2" style="rounded=0;whiteSpace=wrap;html=1;" vertex="1" parent="1">
          <mxGeometry x="250" y="860" width="60" height="40" as="geometry" />
        </mxCell>
        <mxCell id="TopxXAzON157hShRdr8D-45" value="Нет" style="text;html=1;align=center;verticalAlign=middle;whiteSpace=wrap;rounded=0;" vertex="1" parent="1">
          <mxGeometry x="460" y="240" width="60" height="30" as="geometry" />
        </mxCell>
      </root>
    </mxGraphModel>
  </diagram>
</mxfile>
